PathFileType	4	(X/Y/Z)	/Users/niels/Desktop/University/Third Semester/Perception and Action/Exam/Gymnastics Motion Tracking/Code for Gym Tracking/Analyzed Data/Webcam_Backflip/id2001_3_baseline_Sports2D/id2001_3_baseline_Sports2D_px_person00.trc
DataRate	CameraRate	NumFrames	NumMarkers	Units	OrigDataRate	OrigDataStartFrame	OrigNumFrames
29.888475836431226	29.888475836431226	9	22	m	29.888475836431226	100	269
Frame#	Time	Hip			RHip			RKnee			RAnkle			RBigToe			RSmallToe			RHeel			LHip			LKnee			LAnkle			LBigToe			LSmallToe			LHeel			Neck			Head			Nose			RShoulder			RElbow			RWrist			LShoulder			LElbow			LWrist		
		X1	Y1	Z1	X2	Y2	Z2	X3	Y3	Z3	X4	Y4	Z4	X5	Y5	Z5	X6	Y6	Z6	X7	Y7	Z7	X8	Y8	Z8	X9	Y9	Z9	X10	Y10	Z10	X11	Y11	Z11	X12	Y12	Z12	X13	Y13	Z13	X14	Y14	Z14	X15	Y15	Z15	X16	Y16	Z16	X17	Y17	Z17	X18	Y18	Z18	X19	Y19	Z19	X20	Y20	Z20	X21	Y21	Z21	X22	Y22	Z22
100	3.3457711442786073	1.0063739878778593	-0.7497964588867594	0.0	0.9463789553228368	-0.7581878820059568	0.0	0.9179288093158942	-1.0682324126408862	0.0	1.3012675108329652	-1.0837117877856997	0.0	1.6059283873787626	-1.1953288492669911	0.0	1.6316676789962725	-1.0674345108234229	0.0	1.3268675028846486	-1.0972828238980523	0.0	1.0623921533333085	-0.7595745671435491	0.0	1.0469517834546909	-1.063890511314822	0.0	1.3517706419618463	-1.060709800438815	0.0	1.3989272460935194	-1.1993594970703962	0.0	1.3389144287103971	-1.1993594970703962	0.0	1.1831392822267919	-1.1112026367185737	0.0	0.9747188554414359	-0.22552103556424266	0.0	1.0165469801982154	-0.020801959780272324	0.0	1.012335650133129	-0.11020338806287039	0.0	0.8622829269072909	-0.2913045665047642	0.0	0.8280189127441634	-0.5745123027748893	0.0	0.8340009810925723	-0.8199938781730458	0.0	1.0555590011982108	-0.3127536373120624	0.0	1.0643345078652795	-0.5448059975380268	0.0	1.0872881828802305	-0.7659593792859645	0.0
101	3.379228855721393	1.0051789193082281	-0.7495298473568571	0.0	0.9437622283456959	-0.7582390856282399	0.0	0.917305315674571	-1.069828352024117	0.0	1.3012683780446785	-1.0837115464771268	0.0	1.6059290250052323	-1.1953289907435412	0.0	1.6316679395205484	-1.0674349965298038	0.0	1.3268692014716836	-1.0972827890854335	0.0	1.062398066796776	-0.7593036958811524	0.0	1.050289700154944	-1.0644664105047499	0.0	1.3517707536267982	-1.060709808367208	0.0	1.3989272460936355	-1.19935949707036	0.0	1.3389144287106851	-1.19935949707036	0.0	1.1831392822267555	-1.1112026367186545	0.0	0.9691019473299389	-0.22310584863334762	0.0	1.008890807046998	-0.020089140079025743	0.0	1.0039671476856924	-0.10497476340639383	0.0	0.8550440942932122	-0.289738933061769	0.0	0.8222505147952718	-0.5757953182904003	0.0	0.8360929107583391	-0.8220779832510269	0.0	1.0542198824572724	-0.3086907226261994	0.0	1.0679638349820166	-0.5439655958610842	0.0	1.0918950256921962	-0.7663688661251086	0.0
102	3.4126865671641795	1.0041278321555662	-0.7495145529464663	0.0	0.941270525185547	-0.7595952479746647	0.0	0.9174348713882932	-1.0711926885017231	0.0	1.301271089293201	-1.0837112496125412	0.0	1.6059298951564127	-1.195329243732307	0.0	1.631668022014963	-1.0674351808391904	0.0	1.3268709402220618	-1.0972826229341746	0.0	1.0621001707628803	-0.7596856830881241	0.0	1.053760846647972	-1.0647226175604154	0.0	1.35177106276784	-1.060709819869599	0.0	1.3989272460937143	-1.1993594970703323	0.0	1.338914428710872	-1.1993594970703323	0.0	1.1831392822266884	-1.1112026367187133	0.0	0.9633745819062867	-0.22086983141568264	0.0	1.0002347120038382	-0.01933720791500147	0.0	0.9952634576917031	-0.10061139551644148	0.0	0.8478584706880845	-0.28848920853403426	0.0	0.8172509959260045	-0.5774053458299466	0.0	0.840131448306682	-0.8242912928354006	0.0	1.0523423912045375	-0.30485399260677454	0.0	1.0726835443264997	-0.5437868767468529	0.0	1.0988811206043012	-0.7669785782853938	0.0
103	3.4461442786069654	1.002488508413119	-0.749814526953861	0.0	0.9381600461682151	-0.7622046824574715	0.0	0.9174729591046563	-1.0721235212423215	0.0	1.3012738302110185	-1.0837110099146725	0.0	1.6059306265090205	-1.195329474491788	0.0	1.6316680087596334	-1.0674351910008555	0.0	1.3268722264004003	-1.0972824473972298	0.0	1.0610102825115935	-0.760766916384395	0.0	1.0565042687986814	-1.064683354443119	0.0	1.3517713700145528	-1.0607098297437545	0.0	1.3989272460937567	-1.1993594970703154	0.0	1.3389144287109669	-1.1993594970703154	0.0	1.1831392822266267	-1.1112026367187473	0.0	0.9576748854055216	-0.2189851389304359	0.0	0.9908450430081899	-0.018434679889310513	0.0	0.9864200790532219	-0.09738590940997788	0.0	0.8408853189840102	-0.28748303284633275	0.0	0.8131831102153142	-0.5790033929135995	0.0	0.8454508841127484	-0.8259116078539708	0.0	1.0500746599721227	-0.3013992015681813	0.0	1.078073852349999	-0.5441762253965607	0.0	1.1084475963062905	-0.7668574963168034	0.0
104	3.4796019900497517	0.9996578902313791	-0.750362575214548	0.0	0.9339797969583309	-0.7655805229840725	0.0	0.9167877246078232	-1.0724939155473918	0.0	1.3012758438189203	-1.0837108584908575	0.0	1.605931103230994	-1.1953296338112087	0.0	1.6316679595552235	-1.0674351265322313	0.0	1.3268729787182292	-1.0972823153494298	0.0	1.0585944549708857	-0.7623068569995166	0.0	1.0580115113889577	-1.064366153035192	0.0	1.3517715935776387	-1.0607098362815164	0.0	1.3989272460937723	-1.1993594970703076	0.0	1.3389144287109982	-1.1993594970703076	0.0	1.1831392822265838	-1.111202636718762	0.0	0.9519953973341401	-0.21753085710420578	0.0	0.9811828955768779	-0.017481828770917862	0.0	0.9774987099284062	-0.09528698221652271	0.0	0.8341730056703194	-0.2866301342603301	0.0	0.8101005546819282	-0.5804656661309958	0.0	0.8513896311339262	-0.8265830438854355	0.0	1.0474462456836533	-0.29836207886924815	0.0	1.083259085138182	-0.5447053204003156	0.0	1.1208546497766123	-0.7644346415564539	0.0
105	3.5130597014925375	0.9956635421995876	-0.7511274708822593	0.0	0.9288866537064288	-0.7690014055925027	0.0	0.9149953943924685	-1.0722843827065585	0.0	1.3012770138782364	-1.0837107843640528	0.0	1.6059313462113898	-1.1953297206523177	0.0	1.6316679087873636	-1.0674350486510993	0.0	1.3268733076663657	-1.0972822368833002	0.0	1.054786670264799	-0.7639380602759984	0.0	1.058193063218383	-1.0638284560830709	0.0	1.3517717222739531	-1.0607098396779835	0.0	1.3989272460937727	-1.1993594970703056	0.0	1.3389144287109949	-1.1993594970703056	0.0	1.1831392822265603	-1.1112026367187646	0.0	0.9463389318886851	-0.21639825362092222	0.0	0.9717467159618601	-0.01657861194719732	0.0	0.9685259451518946	-0.09399604355905017	0.0	0.8276886099676336	-0.2859623791540117	0.0	0.8078685303502886	-0.5818269835424245	0.0	0.8573774283608342	-0.8263913300172819	0.0	1.0444922487931398	-0.29575766538654114	0.0	1.087750262725968	-0.5446792842882872	0.0	1.1366008553948128	-0.7580750492606602	0.0
106	3.546517412935324	0.9911185111868164	-0.752200494553078	0.0	0.923532574285397	-0.771911689644215	0.0	0.9120271631058267	-1.071672045547828	0.0	1.3012775200126616	-1.083710762146553	0.0	1.605931427141652	-1.1953297541427006	0.0	1.6316678710723487	-1.067434986247235	0.0	1.3268733730896702	-1.0972822017075867	0.0	1.050057116920409	-0.7654259220578183	0.0	1.0571608054280808	-1.0633128354396253	0.0	1.3517717770841322	-1.0607098408612807	0.0	1.3989272460937667	-1.1993594970703068	0.0	1.338914428710978	-1.1993594970703068	0.0	1.1831392822265512	-1.1112026367187617	0.0	0.9407990169812801	-0.21531344308513498	0.0	0.9628335528703958	-0.015606623762770663	0.0	0.9596556410081873	-0.09303099587154544	0.0	0.8214287809382497	-0.28563073878203776	0.0	0.8061892807002538	-0.583098227786111	0.0	0.8629693404636007	-0.8256947848946808	0.0	1.0413495003086823	-0.2936190304664379	0.0	1.0916543539169623	-0.5436126025363734	0.0	1.1558235157854373	-0.7470926604619079	0.0
107	3.5799751243781097	0.9866524949414862	-0.7535464256335577	0.0	0.9186192767494373	-0.7740712925001617	0.0	0.9082018379304365	-1.0709328961455853	0.0	1.301277615512086	-1.0837107673520472	0.0	1.6059314193406682	-1.1953297565734067	0.0	1.6316678489218757	-1.0674349470702906	0.0	1.3268733120769152	-1.0972821938933761	0.0	1.044946635153481	-0.7666436015587363	0.0	1.0550428048655955	-1.0631136180183902	0.0	1.3517717866050538	-1.0607098408116993	0.0	1.3989272460937598	-1.1993594970703088	0.0	1.33891442871096	-1.1993594970703088	0.0	1.1831392822265505	-1.1112026367187573	0.0	0.9354963435379958	-0.21399670705622353	0.0	0.9545221190507446	-0.014335399876039732	0.0	0.951197737090483	-0.09202145199524824	0.0	0.8154654557399615	-0.28572397337034766	0.0	0.8047575159344627	-0.5842132697002074	0.0	0.8678113812559195	-0.8249157811099013	0.0	1.0382164696202485	-0.2919386078080093	0.0	1.0951083600458575	-0.5415458184656093	0.0	1.177453379381728	-0.7320486026609898	0.0
108	3.613432835820896	0.9826045818241077	-0.754766676547003	0.0	0.9145783021770673	-0.7753601758336985	0.0	0.9041527248691688	-1.0701793618213478	0.0	1.3012775157329664	-1.0837107824732453	0.0	1.6059313770161538	-1.1953297455267728	0.0	1.6316678391731354	-1.067434928052222	0.0	1.326873215333681	-1.0972821994824764	0.0	1.0399196029675675	-0.7673574456612126	0.0	1.052115031662058	-1.0632374681602035	0.0	1.351771774861552	-1.0607098402665616	0.0	1.3989272460937543	-1.1993594970703105	0.0	1.3389144287109465	-1.1993594970703105	0.0	1.1831392822265534	-1.1112026367187533	0.0	0.9305460445336077	-0.2123771619636223	0.0	0.946894345311981	-0.012772271756970075	0.0	0.9434938536931291	-0.09084391394517409	0.0	0.8098916982450505	-0.2861207637172448	0.0	0.8033535979516299	-0.5851232892554792	0.0	0.871584269263015	-0.8244077117509462	0.0	1.0353305629365215	-0.29064636390951876	0.0	1.098003521800706	-0.5387607727989648	0.0	1.1992897436626369	-0.714077725697324	0.0
